<svg xmlns="http://www.w3.org/2000/svg" viewBox="0 0 64 64" role="img" aria-labelledby="title desc">
  <title id="title">EdgeOps Cloud favicon</title>
  <desc id="desc">A stylized E inside an orbital O.</desc>
  <defs>
    <linearGradient id="bg" x1="8" x2="56" y1="8" y2="56" gradientUnits="userSpaceOnUse">
      <stop offset="0" stop-color="#07111f" />
      <stop offset="0.54" stop-color="#10243a" />
      <stop offset="1" stop-color="#081520" />
    </linearGradient>
    <linearGradient id="orbit" x1="12" x2="52" y1="12" y2="52" gradientUnits="userSpaceOnUse">
      <stop offset="0" stop-color="#2dd4bf" />
      <stop offset="0.52" stop-color="#38bdf8" />
      <stop offset="1" stop-color="#f59e0b" />
    </linearGradient>
    <filter id="softGlow" x="-30%" y="-30%" width="160%" height="160%">
      <feGaussianBlur stdDeviation="1.4" result="blur" />
      <feMerge>
        <feMergeNode in="blur" />
        <feMergeNode in="SourceGraphic" />
      </feMerge>
    </filter>
  </defs>
  <rect width="64" height="64" rx="15" fill="url(#bg)" />
  <path d="M14 35.5C17 21 29.5 12.6 42.4 16.8C54.7 20.8 56.6 35.4 47.5 44.3C37.8 53.8 20.4 50.9 14 35.5Z" fill="none" stroke="#0f172a" stroke-width="8" opacity="0.7" />
  <path d="M14 35.5C17 21 29.5 12.6 42.4 16.8C54.7 20.8 56.6 35.4 47.5 44.3C37.8 53.8 20.4 50.9 14 35.5Z" fill="none" stroke="url(#orbit)" stroke-linecap="round" stroke-width="4.8" filter="url(#softGlow)" />
  <circle cx="47.3" cy="19.1" r="3.1" fill="#f8fafc" />
  <circle cx="47.3" cy="19.1" r="1.45" fill="#2dd4bf" />
  <path d="M24 20H43L41.7 26H30.7V29.4H39.8L38.6 34.8H30.7V38.1H43L41.7 44H24V20Z" fill="#ecfeff" />
  <path d="M30.7 29.4H39.8L38.6 34.8H30.7V38.1H43L41.7 44H24V38.4L30.7 29.4Z" fill="#bae6fd" opacity="0.5" />
  <path d="M21.8 20H27.9L30.7 26H24Z" fill="#2dd4bf" opacity="0.9" />
</svg>
